%TF.GenerationSoftware,mfd,cmfd-gen,1.0*%
%TF.SameCoordinates,Original*%
%FSLAX36Y36*%
%MOMM*%
%ADD10R,0.2520X0.6300*%
D10*
X067250000Y009000000D03*
D10*
X067750000Y009000000D03*
D10*
X068250000Y009000000D03*
D10*
X068750000Y009000000D03*
D10*
X069250000Y009000000D03*
D10*
X069750000Y009000000D03*
D10*
X070250000Y009000000D03*
D10*
X070750000Y009000000D03*
D10*
X071250000Y009000000D03*
D10*
X071750000Y009000000D03*
D10*
X072250000Y009000000D03*
D10*
X072750000Y009000000D03*
%ADD11R,0.6300X0.2520*%
D11*
X073000000Y009250000D03*
D11*
X073000000Y009750000D03*
D11*
X073000000Y010250000D03*
D11*
X073000000Y010750000D03*
D11*
X073000000Y011250000D03*
D11*
X073000000Y011750000D03*
D11*
X073000000Y012250000D03*
D11*
X073000000Y012750000D03*
D11*
X073000000Y013250000D03*
D11*
X073000000Y013750000D03*
D11*
X073000000Y014250000D03*
D11*
X073000000Y014750000D03*
D10*
X072750000Y015000000D03*
D10*
X072250000Y015000000D03*
D10*
X071750000Y015000000D03*
D10*
X071250000Y015000000D03*
D10*
X070750000Y015000000D03*
D10*
X070250000Y015000000D03*
D10*
X069750000Y015000000D03*
D10*
X069250000Y015000000D03*
D10*
X068750000Y015000000D03*
D10*
X068250000Y015000000D03*
D10*
X067750000Y015000000D03*
D10*
X067250000Y015000000D03*
D11*
X067000000Y014750000D03*
D11*
X067000000Y014250000D03*
D11*
X067000000Y013750000D03*
D11*
X067000000Y013250000D03*
D11*
X067000000Y012750000D03*
D11*
X067000000Y012250000D03*
D11*
X067000000Y011750000D03*
D11*
X067000000Y011250000D03*
D11*
X067000000Y010750000D03*
D11*
X067000000Y010250000D03*
D11*
X067000000Y009750000D03*
D11*
X067000000Y009250000D03*
%ADD12R,2.9700X2.9700*%
D12*
X070000000Y012000000D03*
%ADD13R,0.7200X0.8100*%
D13*
X061250000Y006000000D03*
D13*
X062750000Y006000000D03*
D13*
X061250000Y018000000D03*
D13*
X062750000Y018000000D03*
D13*
X064250000Y006000000D03*
D13*
X065750000Y006000000D03*
D13*
X064250000Y018000000D03*
D13*
X065750000Y018000000D03*
D13*
X067250000Y006000000D03*
D13*
X068750000Y006000000D03*
D13*
X067250000Y018000000D03*
D13*
X068750000Y018000000D03*
D13*
X071250000Y006000000D03*
D13*
X072750000Y006000000D03*
D13*
X071250000Y018000000D03*
D13*
X072750000Y018000000D03*
D13*
X074250000Y006000000D03*
D13*
X075750000Y006000000D03*
D13*
X074250000Y018000000D03*
D13*
X075750000Y018000000D03*
D13*
X077250000Y006000000D03*
D13*
X078750000Y006000000D03*
D13*
X077250000Y018000000D03*
D13*
X078750000Y018000000D03*
%ADD14R,0.2250X0.5400*%
D14*
X121250000Y068500000D03*
D14*
X121750000Y068500000D03*
D14*
X122250000Y068500000D03*
D14*
X122750000Y068500000D03*
%ADD15R,0.5400X0.2250*%
D15*
X123500000Y069250000D03*
D15*
X123500000Y069750000D03*
D15*
X123500000Y070250000D03*
D15*
X123500000Y070750000D03*
D14*
X122750000Y071500000D03*
D14*
X122250000Y071500000D03*
D14*
X121750000Y071500000D03*
D14*
X121250000Y071500000D03*
D15*
X120500000Y070750000D03*
D15*
X120500000Y070250000D03*
D15*
X120500000Y069750000D03*
D15*
X120500000Y069250000D03*
%ADD16R,1.4850X1.4850*%
D16*
X122000000Y070000000D03*
%ADD17R,1.3500X0.5400*%
D17*
X119300000Y048730000D03*
D17*
X119300000Y050000000D03*
D17*
X119300000Y051270000D03*
D17*
X124700000Y048730000D03*
D17*
X124700000Y050000000D03*
D17*
X124700000Y051270000D03*
M02*
