M48
METRIC,TZ
FMAT,2
T01C0.500
T02C0.900
T03C1.000
T04C3.200
%
G90
G05
T01
X010000Y003000
X010000Y137000
X025000Y003000
X025000Y137000
X040000Y003000
X040000Y137000
X055000Y003000
X055000Y137000
X070000Y003000
X070000Y137000
X085000Y003000
X085000Y137000
X100000Y003000
X100000Y137000
X115000Y003000
X115000Y137000
X130000Y003000
X130000Y137000
T02
X022500Y132000
X027500Y132000
X045000Y132000
X050000Y132000
X067500Y132000
X072500Y132000
X090000Y132000
X095000Y132000
X112500Y132000
X117500Y132000
X129500Y115000
X134500Y115000
X129500Y092500
X134500Y092500
X129500Y070000
X134500Y070000
X129500Y047500
X134500Y047500
X129500Y025000
X134500Y025000
X022500Y008000
X027500Y008000
X045000Y008000
X050000Y008000
X067500Y008000
X072500Y008000
X090000Y008000
X095000Y008000
X112500Y008000
X117500Y008000
X005500Y115000
X010500Y115000
X005500Y092500
X010500Y092500
X005500Y070000
X010500Y070000
X005500Y047500
X010500Y047500
X005500Y025000
X010500Y025000
T03
X020000Y123000
X020000Y120000
X020000Y117000
X120000Y123000
X120000Y120000
X120000Y117000
X020000Y023000
X020000Y020000
X020000Y017000
X120000Y023000
X120000Y020000
X120000Y017000
X058570Y022000
X061110Y022000
X063650Y022000
X066190Y022000
X068730Y022000
X071270Y022000
X073810Y022000
X076350Y022000
X078890Y022000
X081430Y022000
X058570Y024540
X061110Y024540
X063650Y024540
X066190Y024540
X068730Y024540
X071270Y024540
X073810Y024540
X076350Y024540
X078890Y024540
X081430Y024540
X030000Y012000
X032540Y012000
X035080Y012000
X037620Y012000
T04
X005000Y005000
X135000Y005000
X135000Y135000
X005000Y135000
M30
