%TF.GenerationSoftware,mfd,cmfd-gen,1.0*%
%TF.SameCoordinates,Original*%
%FSLAX36Y36*%
%MOMM*%
%ADD10C,1.6000*%
D10*
X022500000Y132000000D03*
D10*
X027500000Y132000000D03*
D10*
X045000000Y132000000D03*
D10*
X050000000Y132000000D03*
D10*
X067500000Y132000000D03*
D10*
X072500000Y132000000D03*
D10*
X090000000Y132000000D03*
D10*
X095000000Y132000000D03*
D10*
X112500000Y132000000D03*
D10*
X117500000Y132000000D03*
D10*
X129500000Y115000000D03*
D10*
X134500000Y115000000D03*
D10*
X129500000Y092500000D03*
D10*
X134500000Y092500000D03*
D10*
X129500000Y070000000D03*
D10*
X134500000Y070000000D03*
D10*
X129500000Y047500000D03*
D10*
X134500000Y047500000D03*
D10*
X129500000Y025000000D03*
D10*
X134500000Y025000000D03*
D10*
X022500000Y008000000D03*
D10*
X027500000Y008000000D03*
D10*
X045000000Y008000000D03*
D10*
X050000000Y008000000D03*
D10*
X067500000Y008000000D03*
D10*
X072500000Y008000000D03*
D10*
X090000000Y008000000D03*
D10*
X095000000Y008000000D03*
D10*
X112500000Y008000000D03*
D10*
X117500000Y008000000D03*
D10*
X005500000Y115000000D03*
D10*
X010500000Y115000000D03*
D10*
X005500000Y092500000D03*
D10*
X010500000Y092500000D03*
D10*
X005500000Y070000000D03*
D10*
X010500000Y070000000D03*
D10*
X005500000Y047500000D03*
D10*
X010500000Y047500000D03*
D10*
X005500000Y025000000D03*
D10*
X010500000Y025000000D03*
%ADD11C,1.7000*%
D11*
X020000000Y123000000D03*
D11*
X020000000Y120000000D03*
D11*
X020000000Y117000000D03*
D11*
X120000000Y123000000D03*
D11*
X120000000Y120000000D03*
D11*
X120000000Y117000000D03*
D11*
X020000000Y023000000D03*
D11*
X020000000Y020000000D03*
D11*
X020000000Y017000000D03*
D11*
X120000000Y023000000D03*
D11*
X120000000Y020000000D03*
D11*
X120000000Y017000000D03*
%ADD12C,1.9000*%
D12*
X058570000Y022000000D03*
D12*
X061110000Y022000000D03*
D12*
X063650000Y022000000D03*
D12*
X066190000Y022000000D03*
D12*
X068730000Y022000000D03*
D12*
X071270000Y022000000D03*
D12*
X073810000Y022000000D03*
D12*
X076350000Y022000000D03*
D12*
X078890000Y022000000D03*
D12*
X081430000Y022000000D03*
D12*
X058570000Y024540000D03*
D12*
X061110000Y024540000D03*
D12*
X063650000Y024540000D03*
D12*
X066190000Y024540000D03*
D12*
X068730000Y024540000D03*
D12*
X071270000Y024540000D03*
D12*
X073810000Y024540000D03*
D12*
X076350000Y024540000D03*
D12*
X078890000Y024540000D03*
D12*
X081430000Y024540000D03*
D12*
X030000000Y012000000D03*
D12*
X032540000Y012000000D03*
D12*
X035080000Y012000000D03*
D12*
X037620000Y012000000D03*
%ADD13C,1.3000*%
D13*
X010000000Y003000000D03*
D13*
X010000000Y137000000D03*
D13*
X025000000Y003000000D03*
D13*
X025000000Y137000000D03*
D13*
X040000000Y003000000D03*
D13*
X040000000Y137000000D03*
D13*
X055000000Y003000000D03*
D13*
X055000000Y137000000D03*
D13*
X070000000Y003000000D03*
D13*
X070000000Y137000000D03*
D13*
X085000000Y003000000D03*
D13*
X085000000Y137000000D03*
D13*
X100000000Y003000000D03*
D13*
X100000000Y137000000D03*
D13*
X115000000Y003000000D03*
D13*
X115000000Y137000000D03*
D13*
X130000000Y003000000D03*
D13*
X130000000Y137000000D03*
M02*
