%TF.GenerationSoftware,mfd,cmfd-gen,1.0*%
%TF.SameCoordinates,Original*%
%FSLAX36Y36*%
%MOMM*%
%ADD10R,0.2800X0.7000*%
D10*
X067250000Y009000000D03*
D10*
X067750000Y009000000D03*
D10*
X068250000Y009000000D03*
D10*
X068750000Y009000000D03*
D10*
X069250000Y009000000D03*
D10*
X069750000Y009000000D03*
D10*
X070250000Y009000000D03*
D10*
X070750000Y009000000D03*
D10*
X071250000Y009000000D03*
D10*
X071750000Y009000000D03*
D10*
X072250000Y009000000D03*
D10*
X072750000Y009000000D03*
%ADD11R,0.7000X0.2800*%
D11*
X073000000Y009250000D03*
D11*
X073000000Y009750000D03*
D11*
X073000000Y010250000D03*
D11*
X073000000Y010750000D03*
D11*
X073000000Y011250000D03*
D11*
X073000000Y011750000D03*
D11*
X073000000Y012250000D03*
D11*
X073000000Y012750000D03*
D11*
X073000000Y013250000D03*
D11*
X073000000Y013750000D03*
D11*
X073000000Y014250000D03*
D11*
X073000000Y014750000D03*
D10*
X072750000Y015000000D03*
D10*
X072250000Y015000000D03*
D10*
X071750000Y015000000D03*
D10*
X071250000Y015000000D03*
D10*
X070750000Y015000000D03*
D10*
X070250000Y015000000D03*
D10*
X069750000Y015000000D03*
D10*
X069250000Y015000000D03*
D10*
X068750000Y015000000D03*
D10*
X068250000Y015000000D03*
D10*
X067750000Y015000000D03*
D10*
X067250000Y015000000D03*
D11*
X067000000Y014750000D03*
D11*
X067000000Y014250000D03*
D11*
X067000000Y013750000D03*
D11*
X067000000Y013250000D03*
D11*
X067000000Y012750000D03*
D11*
X067000000Y012250000D03*
D11*
X067000000Y011750000D03*
D11*
X067000000Y011250000D03*
D11*
X067000000Y010750000D03*
D11*
X067000000Y010250000D03*
D11*
X067000000Y009750000D03*
D11*
X067000000Y009250000D03*
%ADD12R,3.3000X3.3000*%
D12*
X070000000Y012000000D03*
%ADD13R,0.8000X0.9000*%
D13*
X061250000Y006000000D03*
D13*
X062750000Y006000000D03*
D13*
X061250000Y018000000D03*
D13*
X062750000Y018000000D03*
D13*
X064250000Y006000000D03*
D13*
X065750000Y006000000D03*
D13*
X064250000Y018000000D03*
D13*
X065750000Y018000000D03*
D13*
X067250000Y006000000D03*
D13*
X068750000Y006000000D03*
D13*
X067250000Y018000000D03*
D13*
X068750000Y018000000D03*
D13*
X071250000Y006000000D03*
D13*
X072750000Y006000000D03*
D13*
X071250000Y018000000D03*
D13*
X072750000Y018000000D03*
D13*
X074250000Y006000000D03*
D13*
X075750000Y006000000D03*
D13*
X074250000Y018000000D03*
D13*
X075750000Y018000000D03*
D13*
X077250000Y006000000D03*
D13*
X078750000Y006000000D03*
D13*
X077250000Y018000000D03*
D13*
X078750000Y018000000D03*
%ADD14C,1.5000*%
D14*
X022500000Y132000000D03*
D14*
X027500000Y132000000D03*
D14*
X045000000Y132000000D03*
D14*
X050000000Y132000000D03*
D14*
X067500000Y132000000D03*
D14*
X072500000Y132000000D03*
D14*
X090000000Y132000000D03*
D14*
X095000000Y132000000D03*
D14*
X112500000Y132000000D03*
D14*
X117500000Y132000000D03*
D14*
X129500000Y115000000D03*
D14*
X134500000Y115000000D03*
D14*
X129500000Y092500000D03*
D14*
X134500000Y092500000D03*
D14*
X129500000Y070000000D03*
D14*
X134500000Y070000000D03*
D14*
X129500000Y047500000D03*
D14*
X134500000Y047500000D03*
D14*
X129500000Y025000000D03*
D14*
X134500000Y025000000D03*
D14*
X022500000Y008000000D03*
D14*
X027500000Y008000000D03*
D14*
X045000000Y008000000D03*
D14*
X050000000Y008000000D03*
D14*
X067500000Y008000000D03*
D14*
X072500000Y008000000D03*
D14*
X090000000Y008000000D03*
D14*
X095000000Y008000000D03*
D14*
X112500000Y008000000D03*
D14*
X117500000Y008000000D03*
D14*
X005500000Y115000000D03*
D14*
X010500000Y115000000D03*
D14*
X005500000Y092500000D03*
D14*
X010500000Y092500000D03*
D14*
X005500000Y070000000D03*
D14*
X010500000Y070000000D03*
D14*
X005500000Y047500000D03*
D14*
X010500000Y047500000D03*
D14*
X005500000Y025000000D03*
D14*
X010500000Y025000000D03*
%ADD15C,1.6000*%
D15*
X020000000Y123000000D03*
D15*
X020000000Y120000000D03*
D15*
X020000000Y117000000D03*
D15*
X120000000Y123000000D03*
D15*
X120000000Y120000000D03*
D15*
X120000000Y117000000D03*
D15*
X020000000Y023000000D03*
D15*
X020000000Y020000000D03*
D15*
X020000000Y017000000D03*
D15*
X120000000Y023000000D03*
D15*
X120000000Y020000000D03*
D15*
X120000000Y017000000D03*
%ADD16R,0.2500X0.6000*%
D16*
X121250000Y068500000D03*
D16*
X121750000Y068500000D03*
D16*
X122250000Y068500000D03*
D16*
X122750000Y068500000D03*
%ADD17R,0.6000X0.2500*%
D17*
X123500000Y069250000D03*
D17*
X123500000Y069750000D03*
D17*
X123500000Y070250000D03*
D17*
X123500000Y070750000D03*
D16*
X122750000Y071500000D03*
D16*
X122250000Y071500000D03*
D16*
X121750000Y071500000D03*
D16*
X121250000Y071500000D03*
D17*
X120500000Y070750000D03*
D17*
X120500000Y070250000D03*
D17*
X120500000Y069750000D03*
D17*
X120500000Y069250000D03*
%ADD18R,1.6500X1.6500*%
D18*
X122000000Y070000000D03*
%ADD19R,1.5000X0.6000*%
D19*
X119300000Y048730000D03*
D19*
X119300000Y050000000D03*
D19*
X119300000Y051270000D03*
D19*
X124700000Y048730000D03*
D19*
X124700000Y050000000D03*
D19*
X124700000Y051270000D03*
%ADD20C,1.8000*%
D20*
X058570000Y022000000D03*
D20*
X061110000Y022000000D03*
D20*
X063650000Y022000000D03*
D20*
X066190000Y022000000D03*
D20*
X068730000Y022000000D03*
D20*
X071270000Y022000000D03*
D20*
X073810000Y022000000D03*
D20*
X076350000Y022000000D03*
D20*
X078890000Y022000000D03*
D20*
X081430000Y022000000D03*
D20*
X058570000Y024540000D03*
D20*
X061110000Y024540000D03*
D20*
X063650000Y024540000D03*
D20*
X066190000Y024540000D03*
D20*
X068730000Y024540000D03*
D20*
X071270000Y024540000D03*
D20*
X073810000Y024540000D03*
D20*
X076350000Y024540000D03*
D20*
X078890000Y024540000D03*
D20*
X081430000Y024540000D03*
D20*
X030000000Y012000000D03*
D20*
X032540000Y012000000D03*
D20*
X035080000Y012000000D03*
D20*
X037620000Y012000000D03*
%ADD21C,1.2000*%
D21*
X010000000Y003000000D03*
D21*
X010000000Y137000000D03*
D21*
X025000000Y003000000D03*
D21*
X025000000Y137000000D03*
D21*
X040000000Y003000000D03*
D21*
X040000000Y137000000D03*
D21*
X055000000Y003000000D03*
D21*
X055000000Y137000000D03*
D21*
X070000000Y003000000D03*
D21*
X070000000Y137000000D03*
D21*
X085000000Y003000000D03*
D21*
X085000000Y137000000D03*
D21*
X100000000Y003000000D03*
D21*
X100000000Y137000000D03*
D21*
X115000000Y003000000D03*
D21*
X115000000Y137000000D03*
D21*
X130000000Y003000000D03*
D21*
X130000000Y137000000D03*
%ADD22C,0.4000*%
D22*
X070000000Y012000000D02*
X070000000Y022000000D01*
%ADD23C,4.2000*%
D23*
X005000000Y005000000D03*
D23*
X135000000Y005000000D03*
D23*
X135000000Y135000000D03*
D23*
X005000000Y135000000D03*
M02*
