%TF.GenerationSoftware,mfd,cmfd-gen,1.0*%
%TF.SameCoordinates,Original*%
%FSLAX36Y36*%
%MOMM*%
%ADD10C,0.9000*%
D10*
X020000000Y070000000D03*
D10*
X022000000Y070000000D03*
D10*
X024000000Y070000000D03*
D10*
X026000000Y070000000D03*
D10*
X028000000Y070000000D03*
D10*
X030000000Y070000000D03*
D10*
X020000000Y072500000D03*
D10*
X022000000Y072500000D03*
D10*
X024000000Y072500000D03*
D10*
X026000000Y072500000D03*
D10*
X028000000Y072500000D03*
D10*
X030000000Y072500000D03*
%ADD11C,1.0000*%
D11*
X070000000Y008000000D03*
D11*
X072540000Y008000000D03*
D11*
X075080000Y008000000D03*
D11*
X077620000Y008000000D03*
D11*
X080160000Y008000000D03*
D11*
X070000000Y010540000D03*
D11*
X072540000Y010540000D03*
D11*
X075080000Y010540000D03*
D11*
X077620000Y010540000D03*
D11*
X080160000Y010540000D03*
D11*
X100000000Y008000000D03*
D11*
X102540000Y008000000D03*
D11*
X105080000Y008000000D03*
D11*
X107620000Y008000000D03*
%ADD12C,0.8000*%
D12*
X110000000Y050000000D03*
D12*
X110000000Y052000000D03*
D12*
X110000000Y054000000D03*
D12*
X110000000Y056000000D03*
D11*
X055000000Y040000000D03*
D11*
X057540000Y040000000D03*
D11*
X060080000Y040000000D03*
D11*
X062620000Y040000000D03*
D11*
X065160000Y040000000D03*
D11*
X067700000Y040000000D03*
D11*
X070240000Y040000000D03*
D11*
X072780000Y040000000D03*
D11*
X075320000Y040000000D03*
D11*
X077860000Y040000000D03*
D11*
X055000000Y042540000D03*
D11*
X057540000Y042540000D03*
D11*
X060080000Y042540000D03*
D11*
X062620000Y042540000D03*
D11*
X065160000Y042540000D03*
D11*
X067700000Y042540000D03*
D11*
X070240000Y042540000D03*
D11*
X072780000Y042540000D03*
D11*
X075320000Y042540000D03*
D11*
X077860000Y042540000D03*
%ADD13C,3.2000*%
D13*
X004000000Y004000000D03*
D13*
X116000000Y004000000D03*
D13*
X116000000Y086000000D03*
D13*
X004000000Y086000000D03*
%ADD14C,2.3000*%
D14*
X009000000Y022000000D03*
D14*
X034000000Y022000000D03*
D14*
X009000000Y037000000D03*
D14*
X034000000Y037000000D03*
%ADD15C,0.6500*%
D15*
X023000000Y008000000D03*
D15*
X037000000Y008000000D03*
M02*
