%TF.GenerationSoftware,mfd,cmfd-gen,1.0*%
%TF.SameCoordinates,Original*%
%FSLAX36Y36*%
%MOMM*%
%ADD10R,0.5400X1.6200*%
D10*
X012000000Y025000000D03*
D10*
X013000000Y025000000D03*
D10*
X014000000Y025000000D03*
D10*
X015000000Y025000000D03*
D10*
X016000000Y025000000D03*
D10*
X017000000Y025000000D03*
D10*
X018000000Y025000000D03*
D10*
X019000000Y025000000D03*
D10*
X020000000Y025000000D03*
D10*
X021000000Y025000000D03*
D10*
X022000000Y025000000D03*
D10*
X023000000Y025000000D03*
D10*
X024000000Y025000000D03*
D10*
X025000000Y025000000D03*
D10*
X026000000Y025000000D03*
D10*
X027000000Y025000000D03*
D10*
X028000000Y025000000D03*
D10*
X029000000Y025000000D03*
D10*
X030000000Y025000000D03*
D10*
X031000000Y025000000D03*
D10*
X012000000Y030500000D03*
D10*
X013000000Y030500000D03*
D10*
X014000000Y030500000D03*
D10*
X015000000Y030500000D03*
D10*
X016000000Y030500000D03*
D10*
X017000000Y030500000D03*
D10*
X018000000Y030500000D03*
D10*
X019000000Y030500000D03*
D10*
X020000000Y030500000D03*
D10*
X021000000Y030500000D03*
D10*
X022000000Y030500000D03*
D10*
X023000000Y030500000D03*
D10*
X024000000Y030500000D03*
D10*
X025000000Y030500000D03*
D10*
X026000000Y030500000D03*
D10*
X027000000Y030500000D03*
D10*
X028000000Y030500000D03*
D10*
X029000000Y030500000D03*
D10*
X030000000Y030500000D03*
D10*
X031000000Y030500000D03*
%ADD11R,0.1980X0.4950*%
D11*
X093600000Y057750000D03*
D11*
X094000000Y057750000D03*
D11*
X094400000Y057750000D03*
D11*
X094800000Y057750000D03*
D11*
X095200000Y057750000D03*
D11*
X095600000Y057750000D03*
D11*
X096000000Y057750000D03*
D11*
X096400000Y057750000D03*
%ADD12R,0.4950X0.1980*%
D12*
X097250000Y058600000D03*
D12*
X097250000Y059000000D03*
D12*
X097250000Y059400000D03*
D12*
X097250000Y059800000D03*
D12*
X097250000Y060200000D03*
D12*
X097250000Y060600000D03*
D12*
X097250000Y061000000D03*
D12*
X097250000Y061400000D03*
D11*
X096400000Y062250000D03*
D11*
X096000000Y062250000D03*
D11*
X095600000Y062250000D03*
D11*
X095200000Y062250000D03*
D11*
X094800000Y062250000D03*
D11*
X094400000Y062250000D03*
D11*
X094000000Y062250000D03*
D11*
X093600000Y062250000D03*
D12*
X092750000Y061400000D03*
D12*
X092750000Y061000000D03*
D12*
X092750000Y060600000D03*
D12*
X092750000Y060200000D03*
D12*
X092750000Y059800000D03*
D12*
X092750000Y059400000D03*
D12*
X092750000Y059000000D03*
D12*
X092750000Y058600000D03*
%ADD13R,2.2275X2.2275*%
D13*
X095000000Y060000000D03*
%ADD14R,1.3500X0.5400*%
D14*
X092300000Y038095000D03*
D14*
X092300000Y039365000D03*
D14*
X092300000Y040635000D03*
D14*
X092300000Y041905000D03*
D14*
X097700000Y038095000D03*
D14*
X097700000Y039365000D03*
D14*
X097700000Y040635000D03*
D14*
X097700000Y041905000D03*
D14*
X092300000Y020095000D03*
D14*
X092300000Y021365000D03*
D14*
X092300000Y022635000D03*
D14*
X092300000Y023905000D03*
D14*
X097700000Y020095000D03*
D14*
X097700000Y021365000D03*
D14*
X097700000Y022635000D03*
D14*
X097700000Y023905000D03*
%ADD15R,0.5400X1.0800*%
D15*
X024500000Y008000000D03*
D15*
X025500000Y008000000D03*
D15*
X026500000Y008000000D03*
D15*
X027500000Y008000000D03*
D15*
X028500000Y008000000D03*
D15*
X029500000Y008000000D03*
D15*
X030500000Y008000000D03*
D15*
X031500000Y008000000D03*
D15*
X032500000Y008000000D03*
D15*
X033500000Y008000000D03*
D15*
X034500000Y008000000D03*
D15*
X035500000Y008000000D03*
D15*
X049500000Y008000000D03*
D15*
X050500000Y008000000D03*
D15*
X051500000Y008000000D03*
D15*
X052500000Y008000000D03*
D15*
X053500000Y008000000D03*
D15*
X054500000Y008000000D03*
D15*
X055500000Y008000000D03*
D15*
X056500000Y008000000D03*
D15*
X057500000Y008000000D03*
D15*
X058500000Y008000000D03*
D15*
X059500000Y008000000D03*
D15*
X060500000Y008000000D03*
%ADD16R,0.2700X0.9000*%
D16*
X015000000Y018000000D03*
D16*
X015500000Y018000000D03*
D16*
X016000000Y018000000D03*
D16*
X016500000Y018000000D03*
D16*
X017000000Y018000000D03*
D16*
X017500000Y018000000D03*
D16*
X018000000Y018000000D03*
D16*
X018500000Y018000000D03*
D16*
X019000000Y018000000D03*
D16*
X019500000Y018000000D03*
D16*
X020000000Y018000000D03*
D16*
X020500000Y018000000D03*
D16*
X021000000Y018000000D03*
D16*
X021500000Y018000000D03*
D16*
X022000000Y018000000D03*
D16*
X022500000Y018000000D03*
D16*
X023000000Y018000000D03*
D16*
X023500000Y018000000D03*
D16*
X024000000Y018000000D03*
D16*
X024500000Y018000000D03*
D16*
X025000000Y018000000D03*
D16*
X025500000Y018000000D03*
D16*
X026000000Y018000000D03*
D16*
X026500000Y018000000D03*
D16*
X027000000Y018000000D03*
D16*
X027500000Y018000000D03*
D16*
X028000000Y018000000D03*
D16*
X028500000Y018000000D03*
D16*
X029000000Y018000000D03*
D16*
X029500000Y018000000D03*
D16*
X030000000Y018000000D03*
D16*
X030500000Y018000000D03*
D16*
X031000000Y018000000D03*
D16*
X031500000Y018000000D03*
D16*
X032000000Y018000000D03*
D16*
X032500000Y018000000D03*
D16*
X033000000Y018000000D03*
D16*
X033500000Y018000000D03*
D16*
X034000000Y018000000D03*
D16*
X034500000Y018000000D03*
%ADD17R,0.2250X0.4950*%
D17*
X049250000Y068600000D03*
D17*
X049750000Y068600000D03*
D17*
X050250000Y068600000D03*
D17*
X050750000Y068600000D03*
%ADD18R,0.4950X0.2250*%
D18*
X051400000Y069250000D03*
D18*
X051400000Y069750000D03*
D18*
X051400000Y070250000D03*
D18*
X051400000Y070750000D03*
D17*
X050750000Y071400000D03*
D17*
X050250000Y071400000D03*
D17*
X049750000Y071400000D03*
D17*
X049250000Y071400000D03*
D18*
X048600000Y070750000D03*
D18*
X048600000Y070250000D03*
D18*
X048600000Y069750000D03*
D18*
X048600000Y069250000D03*
%ADD19R,1.3860X1.3860*%
D19*
X050000000Y070000000D03*
D14*
X067300000Y068095000D03*
D14*
X067300000Y069365000D03*
D14*
X067300000Y070635000D03*
D14*
X067300000Y071905000D03*
D14*
X072700000Y068095000D03*
D14*
X072700000Y069365000D03*
D14*
X072700000Y070635000D03*
D14*
X072700000Y071905000D03*
%ADD20R,0.1980X0.4500*%
D20*
X049000000Y053250000D03*
D20*
X049400000Y053250000D03*
D20*
X049800000Y053250000D03*
D20*
X050200000Y053250000D03*
D20*
X050600000Y053250000D03*
D20*
X051000000Y053250000D03*
%ADD21R,0.4500X0.1980*%
D21*
X051750000Y054000000D03*
D21*
X051750000Y054400000D03*
D21*
X051750000Y054800000D03*
D21*
X051750000Y055200000D03*
D21*
X051750000Y055600000D03*
D21*
X051750000Y056000000D03*
D20*
X051000000Y056750000D03*
D20*
X050600000Y056750000D03*
D20*
X050200000Y056750000D03*
D20*
X049800000Y056750000D03*
D20*
X049400000Y056750000D03*
D20*
X049000000Y056750000D03*
D21*
X048250000Y056000000D03*
D21*
X048250000Y055600000D03*
D21*
X048250000Y055200000D03*
D21*
X048250000Y054800000D03*
D21*
X048250000Y054400000D03*
D21*
X048250000Y054000000D03*
%ADD22R,1.7325X1.7325*%
D22*
X050000000Y055000000D03*
%ADD23R,0.7200X0.8100*%
D23*
X084250000Y080000000D03*
D23*
X085750000Y080000000D03*
D23*
X084250000Y084000000D03*
D23*
X085750000Y084000000D03*
D23*
X089250000Y080000000D03*
D23*
X090750000Y080000000D03*
D23*
X089250000Y084000000D03*
D23*
X090750000Y084000000D03*
D23*
X094250000Y080000000D03*
D23*
X095750000Y080000000D03*
D23*
X094250000Y084000000D03*
D23*
X095750000Y084000000D03*
D23*
X099250000Y080000000D03*
D23*
X100750000Y080000000D03*
D23*
X099250000Y084000000D03*
D23*
X100750000Y084000000D03*
M02*
