M48
METRIC,TZ
FMAT,2
T01C0.650
T02C0.800
T03C0.900
T04C1.000
T05C2.300
T06C3.200
%
G90
G05
T01
X023000Y008000
X037000Y008000
T02
X110000Y050000
X110000Y052000
X110000Y054000
X110000Y056000
T03
X020000Y070000
X022000Y070000
X024000Y070000
X026000Y070000
X028000Y070000
X030000Y070000
X020000Y072500
X022000Y072500
X024000Y072500
X026000Y072500
X028000Y072500
X030000Y072500
T04
X070000Y008000
X072540Y008000
X075080Y008000
X077620Y008000
X080160Y008000
X070000Y010540
X072540Y010540
X075080Y010540
X077620Y010540
X080160Y010540
X100000Y008000
X102540Y008000
X105080Y008000
X107620Y008000
X055000Y040000
X057540Y040000
X060080Y040000
X062620Y040000
X065160Y040000
X067700Y040000
X070240Y040000
X072780Y040000
X075320Y040000
X077860Y040000
X055000Y042540
X057540Y042540
X060080Y042540
X062620Y042540
X065160Y042540
X067700Y042540
X070240Y042540
X072780Y042540
X075320Y042540
X077860Y042540
T05
X009000Y022000
X034000Y022000
X009000Y037000
X034000Y037000
T06
X004000Y004000
X116000Y004000
X116000Y086000
X004000Y086000
M30
